# xmcd
#
# Track frame offsets:
#	150
#	17950
#	36608
#	53468
#	72884
#	91194
#	105993
#	118574
#	134574
#	148274
#	161616
#	173431
#
# Disc length: 2471 seconds
#
# Revision: 1
# Processed by: cddbd v1.5.2PL0 Copyright (c) Steve Scherf et al.
# Submitted via: audiograbber 1.83.01
#
DISCID=9f09a50c
DTITLE=Legendary Stardust Cowboy - Retro Rocket Back To Earth
DYEAR=2004
DGENRE=Country
TTITLE0=Bladerunner
TTITLE1=Linda
TTITLE2=Geiger Counter
TTITLE3=Westward Creek
TTITLE4=Stealth Cowboy
TTITLE5=Earthquake
TTITLE6=Credit Card Blues
TTITLE7=I Hate CDs
TTITLE8=There'll Be Hot Coffee
TTITLE9=The Magic In Your Eyes
TTITLE10=Egyptian Maiden
TTITLE11=Linda(Reprise)
EXTD=
EXTT0=
EXTT1=
EXTT2=
EXTT3=
EXTT4=
EXTT5=
EXTT6=
EXTT7=
EXTT8=
EXTT9=
EXTT10=
EXTT11=
PLAYORDER=
